<?xml version="1.0" encoding="iso-8859-1"?>
<!-- Generator: Adobe Illustrator 19.0.0, SVG Export Plug-In . SVG Version: 6.00 Build 0)  -->
<svg version="1.1" id="Capa_1" xmlns="http://www.w3.org/2000/svg" xmlns:xlink="http://www.w3.org/1999/xlink" x="0px" y="0px"
	 viewBox="0 0 512 512" style="enable-background:new 0 0 512 512;" xml:space="preserve">
<g>
	<g>
		<path d="M340.641,128.039c-4.143,0-7.5,3.357-7.5,7.5v8.443c0,4.142,3.357,7.5,7.5,7.5c4.142,0,7.5-3.358,7.5-7.5v-8.443
			C348.141,131.396,344.783,128.039,340.641,128.039z"/>
	</g>
</g>
<g>
	<g>
		<path d="M433.939,128.039c-4.142,0-7.5,3.357-7.5,7.5v8.443c0,4.142,3.358,7.5,7.5,7.5s7.5-3.358,7.5-7.5v-8.443
			C441.439,131.396,438.081,128.039,433.939,128.039z"/>
	</g>
</g>
<g>
	<g>
		<path d="M406.372,138.315c-3.119-2.726-7.857-2.408-10.582,0.71c-2.053,2.349-5.151,3.695-8.5,3.695
			c-3.35,0-6.448-1.347-8.5-3.695c-2.726-3.119-7.464-3.437-10.582-0.711c-3.119,2.726-3.437,7.464-0.711,10.582
			c4.901,5.607,12.114,8.823,19.793,8.823c7.678,0.002,14.892-3.214,19.793-8.821C409.808,145.779,409.49,141.042,406.372,138.315z"
			/>
	</g>
</g>
<g>
	<g>
		<path d="M364.501,294.386c-37.6-53.814-40.439-108.814-40.462-109.325c-0.445-12.236-10.75-21.866-22.998-21.437
			c-12.133,0.424-21.902,10.866-21.491,22.998c0.093,2.741,2.788,67.891,48.458,133.259c0.751,1.073,1.597,2.084,2.519,3.005
			c4.306,4.306,9.99,6.518,15.719,6.518c4.432,0,8.891-1.324,12.756-4.024C369.064,318.351,371.529,304.448,364.501,294.386z
			 M350.412,313.083c-3.238,2.263-7.855,1.434-10.107-1.792c-43.146-61.753-45.676-122.588-45.763-125.174
			c-0.065-1.965,0.709-3.806,1.987-5.174c1.28-1.369,3.066-2.263,5.022-2.329c3.995-0.121,7.355,3.001,7.5,7.007
			c0.022,0.588,2.723,59.487,43.155,117.356C354.495,306.258,353.691,310.791,350.412,313.083z"/>
	</g>
</g>
<g>
	<g>
		<path d="M290.517,371.152c-37.6-53.814-40.439-108.814-40.462-109.325c-0.445-12.234-10.768-21.856-22.998-21.437
			c-12.103,0.415-21.9,10.906-21.49,22.998c0.093,2.742,2.788,67.891,48.459,133.261c6.944,9.937,21.08,12.422,30.991,5.497
			C295.079,395.117,297.545,381.215,290.517,371.152z M276.429,389.85c-3.231,2.258-7.855,1.432-10.106-1.793
			c-43.149-61.759-45.677-122.598-45.763-125.175c-0.131-3.881,3.143-7.371,7.008-7.502c0.083-0.002,0.166-0.004,0.249-0.004
			c3.88,0,7.109,3.089,7.251,7.011c0.022,0.588,2.723,59.487,43.155,117.356C280.512,383.024,279.708,387.558,276.429,389.85z"/>
	</g>
</g>
<g>
	<g>
		<path d="M199.066,426.43c-37.6-53.814-40.439-108.814-40.462-109.325c-0.447-12.235-10.77-21.866-22.999-21.437
			c-12.139,0.427-21.902,10.858-21.49,22.998c0.093,2.741,2.788,67.89,48.458,133.258c6.947,9.943,21.057,12.44,30.993,5.5
			C203.628,450.395,206.094,436.491,199.066,426.43z M184.977,445.127c-3.255,2.274-7.861,1.431-10.106-1.793
			c-43.148-61.756-45.677-122.593-45.764-125.175c-0.136-3.993,3.023-7.367,7.008-7.502c0.083-0.003,0.167-0.004,0.249-0.004
			c3.88,0,7.109,3.089,7.251,7.011c0.022,0.588,2.724,59.487,43.155,117.356C189.06,438.301,188.256,442.835,184.977,445.127z"/>
	</g>
</g>
<g>
	<g>
		<path d="M511.054,79.412c-2.276-9.856-7.75-16.797-15.238-19.785c-0.047-6.716-3.127-13.469-9.024-19.368
			c-5.905-5.904-12.654-8.986-19.367-9.032c-2.99-7.484-9.93-12.955-19.785-15.23c-14.365-3.316-22.464,2.704-26.012,6.587
			c-3.79,4.149-5.973,9.69-6.434,15.751C354.775,20.26,290.912,54.65,272.741,115.039c-0.679,1.973-17.276,49.069-62.975,94.768
			c-45.689,45.69-92.778,62.289-94.767,62.975c-16.956,5.1-32.088,13.769-44.978,25.768c-3.031,2.822-3.202,7.567-0.381,10.598
			c2.808,3.018,7.602,3.172,10.6,0.381c11.218-10.443,24.4-17.984,39.17-22.411c0.488-0.146,51.891-17.635,100.961-66.704
			c49.068-49.068,66.558-100.472,66.701-100.952c7.63-25.457,24.716-46.418,48.11-59.025s50.299-15.347,75.756-7.718
			c26.785,8.028,50.286,28.428,61.969,54.049c0.007,0.015,0.016,0.029,0.023,0.044c10.02,21.935,11.736,46.459,4.75,69.773
			c-0.99,3.304-6.546,21.077-18.709,46.547c-1.785,3.738-0.202,8.215,3.536,9.999c3.738,1.786,8.215,0.202,9.999-3.536
			c12.321-25.803,18.072-43.804,19.541-48.705c6.886-22.976,6.428-46.975-1.088-69.248c5.48-0.824,10.39-3.129,14.111-6.79
			C511.302,98.723,513.426,89.688,511.054,79.412z M448.597,40.517c-2.504,3.005-4.453,6.541-5.764,10.224
			c-3.992-2.472-8.148-4.703-12.454-6.68c-0.805-4.584,0.019-8.842,2.322-11.362c2.967-3.247,7.927-2.928,11.564-2.088
			c3.328,0.768,7.14,2.334,8.87,5.524C451.483,37.393,449.968,38.871,448.597,40.517z M468.777,70.813
			c-0.509,0.116-1.02,0.215-1.536,0.297c-3.535-3.915-7.33-7.564-11.355-10.934c0.796-5.134,3.357-11.266,8.514-13.362
			c0.018-0.007,0.033-0.018,0.05-0.025c4.52-1.799,8.873,1.216,11.735,4.078c2.857,2.857,5.885,7.212,4.081,11.73
			C478.431,67.238,473.376,69.765,468.777,70.813z M494.554,94.159c-2.151,2.117-5.711,3.091-9.734,2.75
			c-0.535-1.071-1.082-2.138-1.652-3.196c-1.817-3.372-3.804-6.662-5.944-9.837c0.063-0.025,0.123-0.054,0.187-0.079
			c2.67-1.05,5.173-2.399,7.502-4.075c0.024-0.018,0.047-0.036,0.072-0.054c2.314-1.686,4.313-3.611,5.933-5.746
			c3.189,1.729,4.754,5.539,5.522,8.864C497.256,86.325,497.591,91.17,494.554,94.159z"/>
	</g>
</g>
<g>
	<g>
		<path d="M454.848,247.888c-3.614-2.024-8.184-0.736-10.208,2.878c-22.642,40.414-50.757,77.54-83.565,110.348
			c-85.078,85.078-174.6,113.631-184.531,116.607c-55.739,16.705-115.735-19.89-126.358-77.052
			c-4.401-23.676-0.067-48.415,12.391-69.281c2.124-3.556,0.962-8.161-2.594-10.283c-3.557-2.123-8.161-0.962-10.284,2.595
			c-7.505,12.569-12.438,26.362-14.719,40.561c-5.61-2.156-11.487-2.567-16.802-0.966C0.961,368.482-5.974,394.988,5.984,408.19
			c-2.907,6.052-3.104,13.47-0.394,21.365c2.708,7.889,7.423,13.622,13.435,16.613c-0.606,8.041,3.225,16.007,11.081,22.381
			c7.15,5.801,16.578,8.974,25.561,5.772c4.973-1.774,9.223-5.242,12.365-9.885c7.537,7.325,16.133,13.651,25.64,18.774
			c16.93,9.122,35.452,13.755,54.157,13.754c11.04,0,22.147-1.615,33.019-4.874C191.147,489.003,284,459.4,371.679,371.72
			c33.781-33.781,62.731-72.01,86.045-113.624C459.749,254.483,458.461,249.913,454.848,247.888z M15.601,387.113
			c1.109-4.782,3.865-9.81,9.406-9.81c2.676,0,5.688,1.073,8.482,3.026c-0.085,4.777,0.13,9.561,0.646,14.317
			c-0.397-0.043-0.79-0.06-1.186-0.089c-4.286-0.317-8.728,0.131-12.849,1.536c-1.182,0.403-2.334,0.863-3.431,1.414
			C14.563,394.551,14.83,390.439,15.601,387.113z M27.203,432.965c-3.762-1.167-6.203-4.713-7.428-8.282
			c-1.311-3.821-2.111-9.051,1.482-12.322c0.017-0.015,0.036-0.028,0.053-0.044c4.092-3.623,10.202-3.405,15.144-1.97
			c0.178,0.052,0.357,0.107,0.535,0.164c0.045,0.176,1.918,6.862,3.01,9.963c0.598,1.702,1.235,3.383,1.907,5.046
			c-0.066,0.094-0.131,0.189-0.199,0.282C38.551,430.162,32.95,434.748,27.203,432.965z M50.627,460.193
			c-4.025,1.437-8.242-0.998-11.07-3.293c-2.653-2.151-5.39-5.234-5.54-8.862c0.044-0.009,0.088-0.023,0.132-0.032
			c5.536-1.095,10.583-4.013,14.715-7.797c0.052-0.048,0.107-0.091,0.16-0.139c2.522,4.347,5.316,8.514,8.377,12.47
			C55.948,456.349,53.501,459.167,50.627,460.193z"/>
	</g>
</g>
<g>
</g>
<g>
</g>
<g>
</g>
<g>
</g>
<g>
</g>
<g>
</g>
<g>
</g>
<g>
</g>
<g>
</g>
<g>
</g>
<g>
</g>
<g>
</g>
<g>
</g>
<g>
</g>
<g>
</g>
</svg>
