<svg xmlns="http://www.w3.org/2000/svg" viewBox="0 0 400 400"><defs><style>.cls-1{fill:#e20613;}.cls-2{fill:#fff;}</style></defs><g id="Layer_2" data-name="Layer 2"><g id="Layer_1-2" data-name="Layer 1"><path class="cls-1" d="M200,0C89.54,0,0,89.54,0,200a199.19,199.19,0,0,0,21.7,90.69c18.64-24.67,37.91-50.15,57.4-74.9,10.64-13.68,21.71-27.47,33.8-42.16,12.33-14.89,23.58-28.27,36.63-41.21a119.7,119.7,0,0,1,11.16-10.08c3.48-2.78,7.45-5.8,11.24-8.47a179.56,179.56,0,0,1,24.58-15.26c10.66-5.24,20-8.29,29.37-9.58a61,61,0,0,1,32.74,4.18A62.24,62.24,0,0,1,266,97c1.92,1.21,4.14,2.62,6.15,4a122.92,122.92,0,0,1,11.47,9,151,151,0,0,1,19.45,20.71,221.75,221.75,0,0,1,15.63,22.88A239.42,239.42,0,0,1,331,178.16l.25,1.23v3.17l-4.73,0-1.73-2.21c-5.39-6.85-10.46-13.32-16.08-19.47a213.88,213.88,0,0,0-18.12-18.65,177.1,177.1,0,0,0-19.82-15.64c-3.85-2.55-7.29-4.62-10.5-6.33-1.76-.94-3.41-1.73-5.43-2.7a44.53,44.53,0,0,0-4.71-1.73c-11.8-3.7-25.61-1.29-41.1,7.09a146.34,146.34,0,0,0-20.46,13.38c-3.36,2.62-6.4,5.13-9.74,8a97.17,97.17,0,0,0-8.33,8.23c-22.7,26.33-43.12,57.44-61.14,84.88-22.27,34.62-40,63.37-55.65,90.47a25,25,0,0,1-3.49,4.63,200.17,200.17,0,0,0,222.53,53.76,268.93,268.93,0,0,0-16-50.26c-9.72-24.28-20-52.62-19-82.55a95.08,95.08,0,0,1,14.09-43.84c9-14.64,21.46-25.37,35.12-30.23a10.38,10.38,0,0,1,12.66,5.46,10.16,10.16,0,0,1-4.54,13c-8.56,4.54-15.74,12.56-21.33,23.85a67.87,67.87,0,0,0-7,31.81c-.06,24.29,8.71,48.28,18.21,70.62l5,11.66c4.89,11.35,9.85,22.89,14.26,34.81A199.85,199.85,0,0,0,400,200C400,89.54,310.46,0,200,0ZM174.87,95.57a3.54,3.54,0,0,1-4.87.94l-.27-.18a20.32,20.32,0,0,0-9.85-3,8.83,8.83,0,0,0-8.39,3.61A6,6,0,0,0,150.6,99a28,28,0,0,0-.28,2.9c-.1,2-.14,4.11-.07,6.17a58,58,0,0,0,1.58,12.47,46.72,46.72,0,0,1-4.36-12.09,51.09,51.09,0,0,1-1.1-6.43,27.16,27.16,0,0,1-.2-3.43,10.51,10.51,0,0,1,1-4c2-5,7.86-7.85,12.72-7.87A22.67,22.67,0,0,1,174,90.65,3.54,3.54,0,0,1,174.87,95.57Zm34.87-27.69-.19-.28c-2.61-4.15-6.53-8.38-10.79-10.38-4.56-2.26-8.41-1.5-12.31,2a14.84,14.84,0,0,0-4.54,6.61c-1,2.88-1.86,5.76-2.61,8.69a107.32,107.32,0,0,0-2.78,18.07c-.07-6.12-.05-12.26.41-18.45.22-3.08.57-6.18,1-9.25a27.67,27.67,0,0,1,3.48-9.71,15,15,0,0,1,9.06-6.86A19.49,19.49,0,0,1,202,49c7.1,2.65,12.26,7.54,16.08,13.67a4.94,4.94,0,0,1-8.37,5.25Zm68.63,23.69a6,6,0,1,1-11.94-.12c0-.11,0-.22,0-.33l0-.23c.55-7.87.38-16.38-1.26-23.84-.81-3.7-2.19-7.2-4-9.21A11.58,11.58,0,0,0,253,54.35,26.91,26.91,0,0,0,242,56a75.86,75.86,0,0,0-11,5.54,78.56,78.56,0,0,0-18.84,16.81A80.67,80.67,0,0,1,228.39,58a79.25,79.25,0,0,1,10.79-8,32.71,32.71,0,0,1,13.75-4.48,20,20,0,0,1,15.19,5.34c4.2,4.21,5.93,9,7.27,13.52C277.89,73.59,278.47,82.38,278.37,91.57Z"/><path class="cls-2" d="M331,178.16a239.42,239.42,0,0,0-12.34-24.55,221.75,221.75,0,0,0-15.63-22.88A151,151,0,0,0,283.62,110a122.92,122.92,0,0,0-11.47-9c-2-1.41-4.23-2.82-6.15-4a62.24,62.24,0,0,0-7.38-3.8A61,61,0,0,0,225.88,89c-9.38,1.29-18.71,4.34-29.37,9.58a179.56,179.56,0,0,0-24.58,15.26c-3.79,2.67-7.76,5.69-11.24,8.47a119.7,119.7,0,0,0-11.16,10.08c-13.05,12.94-24.3,26.32-36.63,41.21-12.09,14.69-23.16,28.48-33.8,42.16C59.61,240.54,40.34,266,21.7,290.69c1.06,2.08,2.17,4.14,3.3,6.17q1.16,2.1,2.37,4.17a199.87,199.87,0,0,0,15.71,23c1,1.26,2,2.51,3,3.74q2,2.44,4.15,4.83a25,25,0,0,0,3.49-4.63c15.69-27.1,33.38-55.85,55.65-90.47,18-27.44,38.44-58.55,61.14-84.88a97.17,97.17,0,0,1,8.33-8.23c3.34-2.91,6.38-5.42,9.74-8a146.34,146.34,0,0,1,20.46-13.38c15.49-8.38,29.3-10.79,41.1-7.09a44.53,44.53,0,0,1,4.71,1.73c2,1,3.67,1.76,5.43,2.7,3.21,1.71,6.65,3.78,10.5,6.33a177.1,177.1,0,0,1,19.82,15.64,213.88,213.88,0,0,1,18.12,18.65c5.62,6.15,10.69,12.62,16.08,19.47l1.73,2.21,4.73,0v-3.17Z"/><path class="cls-2" d="M290,335.89l-5-11.66c-9.5-22.34-18.27-46.33-18.21-70.62a67.87,67.87,0,0,1,7-31.81c5.59-11.29,12.77-19.31,21.33-23.85a10.16,10.16,0,0,0,4.54-13,10.38,10.38,0,0,0-12.66-5.46c-13.66,4.86-26.14,15.59-35.12,30.23a95.08,95.08,0,0,0-14.09,43.84c-.95,29.93,9.32,58.27,19,82.55a268.93,268.93,0,0,1,16,50.26q3-1.17,6-2.45c1.2-.52,2.39-1,3.58-1.57q6.63-3,13-6.46c1.12-.61,2.23-1.24,3.35-1.87q2.81-1.59,5.55-3.28C299.84,358.78,294.88,347.24,290,335.89Z"/><path class="cls-2" d="M147.47,108.42a46.72,46.72,0,0,0,4.36,12.09A58,58,0,0,1,150.25,108c-.07-2.06,0-4.15.07-6.17a28,28,0,0,1,.28-2.9,6,6,0,0,1,.89-2.07,8.83,8.83,0,0,1,8.39-3.61,20.32,20.32,0,0,1,9.85,3l.27.18A3.53,3.53,0,0,0,174,90.65a22.67,22.67,0,0,0-14.11-3.91c-4.86,0-10.7,2.88-12.72,7.87a10.51,10.51,0,0,0-1,4,27.16,27.16,0,0,0,.2,3.43A51.09,51.09,0,0,0,147.47,108.42Z"/><path class="cls-2" d="M179.3,74.47c.75-2.93,1.63-5.81,2.61-8.69a14.84,14.84,0,0,1,4.54-6.61c3.9-3.45,7.75-4.21,12.31-2,4.26,2,8.18,6.23,10.79,10.38l.19.28a4.94,4.94,0,0,0,8.37-5.25c-3.82-6.13-9-11-16.08-13.67a19.49,19.49,0,0,0-11.53-.69,15,15,0,0,0-9.06,6.86A27.67,27.67,0,0,0,178,64.84c-.46,3.07-.81,6.17-1,9.25-.46,6.19-.48,12.33-.41,18.45A107.32,107.32,0,0,1,179.3,74.47Z"/><path class="cls-2" d="M231,61.54A75.86,75.86,0,0,1,242,56a26.91,26.91,0,0,1,11-1.65,11.58,11.58,0,0,1,8.18,3.49c1.83,2,3.21,5.51,4,9.21,1.64,7.46,1.81,16,1.26,23.84l0,.23c0,.11,0,.22,0,.33a6,6,0,1,0,11.94.12c.1-9.19-.48-18-3-27.16-1.34-4.52-3.07-9.31-7.27-13.52a20,20,0,0,0-15.19-5.34A32.71,32.71,0,0,0,239.18,50a79.25,79.25,0,0,0-10.79,8,80.67,80.67,0,0,0-16.22,20.34A78.56,78.56,0,0,1,231,61.54Z"/></g></g></svg>