<?xml version="1.0" encoding="iso-8859-1"?>
<!-- Generator: Adobe Illustrator 16.0.0, SVG Export Plug-In . SVG Version: 6.00 Build 0)  -->
<!DOCTYPE svg PUBLIC "-//W3C//DTD SVG 1.1//EN" "http://www.w3.org/Graphics/SVG/1.1/DTD/svg11.dtd">
<svg version="1.1" id="Capa_1" xmlns="http://www.w3.org/2000/svg" xmlns:xlink="http://www.w3.org/1999/xlink" x="0px" y="0px"
	 width="960px" height="960px" viewBox="0 0 960 960" style="enable-background:new 0 0 960 960;" xml:space="preserve">
<g>
	<g>
		<path d="M842.577,0H117.423v960h725.153V0z M774.577,892H185.423V68h589.153V892z"/>
		<path d="M442.482,850.593h75.035h68h143.037V707.556v-68V564.52v-68V353.482H585.518h-68h-75.035h-68H231.444V496.52v68v75.036v68
			v143.037h143.038H442.482z M517.518,782.593h-75.035v-75.037h75.035V782.593z M442.482,564.52h75.035v75.036h-75.035V564.52z
			 M660.555,782.593h-75.036v-75.037h75.036V782.593z M660.555,639.556h-75.036V564.52h75.036V639.556z M585.518,421.482h75.037
			v75.036h-75.037V421.482z M442.482,421.482h75.035v75.036h-75.035V421.482z M299.445,421.482h75.037v75.036h-75.037V421.482z
			 M299.445,564.52h75.037v75.036h-75.037V564.52z M299.445,782.593v-75.037h75.037v75.037H299.445z"/>
		<path d="M728.555,109.606H231.446v201.279h497.109V109.606z M660.555,242.885H299.446v-65.279h361.109V242.885z"/>
	</g>
</g>
<g>
</g>
<g>
</g>
<g>
</g>
<g>
</g>
<g>
</g>
<g>
</g>
<g>
</g>
<g>
</g>
<g>
</g>
<g>
</g>
<g>
</g>
<g>
</g>
<g>
</g>
<g>
</g>
<g>
</g>
</svg>
