<?xml version="1.0" encoding="iso-8859-1"?>
<!-- Generator: Adobe Illustrator 16.0.0, SVG Export Plug-In . SVG Version: 6.00 Build 0)  -->
<!DOCTYPE svg PUBLIC "-//W3C//DTD SVG 1.1//EN" "http://www.w3.org/Graphics/SVG/1.1/DTD/svg11.dtd">
<svg version="1.1" id="Capa_1" xmlns="http://www.w3.org/2000/svg" xmlns:xlink="http://www.w3.org/1999/xlink" x="0px" y="0px"
	 width="949.822px" height="949.822px" viewBox="0 0 949.822 949.822" style="enable-background:new 0 0 949.822 949.822;"
	 xml:space="preserve">
<g>
	<g>
		<path d="M13.788,946.279h248.027v-38.906c20.298,25.83,51.813,42.449,87.137,42.449c51.445,0,94.811-35.252,107.214-82.867h56.644
			v0.043h138.684c12.42,47.594,55.773,82.824,107.201,82.824c51.445,0,94.811-35.252,107.213-82.867h70.127V594.486L760.835,425.144
			V179.577L387.312,0L13.788,179.577V946.279z M801.47,839.045c0,10.66-3.928,20.412-10.4,27.91
			c-7.85,9.096-19.449,14.867-32.375,14.867c-12.908,0-24.488-5.754-32.338-14.824c-0.014-0.014-0.025-0.027-0.039-0.043
			c-6.473-7.498-10.4-17.25-10.4-27.91c0-2.066,0.156-4.1,0.441-6.09c2.242-15.666,13-28.617,27.424-34
			c4.646-1.732,9.668-2.686,14.912-2.686c0.717,0,1.432,0.018,2.143,0.053c4.471,0.223,8.76,1.137,12.77,2.633
			c14.424,5.381,25.18,18.334,27.424,34C801.313,834.945,801.47,836.979,801.47,839.045z M868.032,798.955h-6.072
			c-15.854-40.693-55.096-69.779-101.125-70.658c-0.713-0.014-1.426-0.027-2.143-0.027c-23.326,0-44.986,7.254-62.857,19.615
			c-18.1,12.518-32.309,30.277-40.408,51.07h-77.619h-65h-60.588c-16.099-41.322-56.316-70.686-103.268-70.686
			c-33.292,0-63.197,14.764-83.521,38.086V435.745h247.376h65h75.896V642.91h42.131h65h107.197V798.955L868.032,798.955z
			 M391.729,839.045c0,10.66-3.928,20.412-10.401,27.91c-7.85,9.096-19.447,14.867-32.376,14.867
			c-12.928,0-24.524-5.771-32.375-14.867c-6.473-7.498-10.4-17.25-10.4-27.91c0-2.066,0.155-4.1,0.44-6.09
			c2.243-15.666,13.001-28.617,27.424-34c4.646-1.732,9.67-2.686,14.912-2.686c5.243,0,10.268,0.953,14.913,2.686
			c14.423,5.383,25.182,18.334,27.424,34C391.573,834.945,391.729,836.979,391.729,839.045z M760.835,574.91h-39.131v-93.016
			l39.131,37.822l57.102,55.191h-57.102V574.91z M512.808,367.745H261.815v-34.122h250.993V367.745z M78.788,220.449L387.312,72.122
			l308.523,148.327v147.296H577.808v-99.122H196.815v612.657H78.788V220.449z"/>
	</g>
</g>
<g>
</g>
<g>
</g>
<g>
</g>
<g>
</g>
<g>
</g>
<g>
</g>
<g>
</g>
<g>
</g>
<g>
</g>
<g>
</g>
<g>
</g>
<g>
</g>
<g>
</g>
<g>
</g>
<g>
</g>
</svg>
