<?xml version="1.0" encoding="iso-8859-1"?>
<!-- Generator: Adobe Illustrator 16.0.0, SVG Export Plug-In . SVG Version: 6.00 Build 0)  -->
<!DOCTYPE svg PUBLIC "-//W3C//DTD SVG 1.1//EN" "http://www.w3.org/Graphics/SVG/1.1/DTD/svg11.dtd">
<svg version="1.1" id="Capa_1" xmlns="http://www.w3.org/2000/svg" xmlns:xlink="http://www.w3.org/1999/xlink" x="0px" y="0px"
	 width="966px" height="966px" viewBox="0 0 966 966" style="enable-background:new 0 0 966 966;" xml:space="preserve">
<g>
	<g>
		<path d="M91.907,230.855l-39,435.702H0v287.932h966v-287.93h-52.979l-40-435.703H725.58V195.95H866V11.512H517.16V195.95h140.42
			v34.906L91.907,230.855L91.907,230.855z M585.16,127.949V79.511H798v48.438H585.16z M898,886.488H68v-151.93h830V886.488z
			 M810.979,298.855l33.758,367.702H121.179l32.913-367.702H810.979L810.979,298.855z"/>
		<rect x="448" y="776.523" width="70" height="68"/>
		<rect x="188.011" y="446.167" width="70" height="68"/>
		<rect x="314.005" y="446.167" width="70" height="68"/>
		<rect x="439.999" y="446.167" width="70" height="68"/>
		<rect x="188.011" y="561.809" width="70" height="68"/>
		<rect x="314.005" y="561.809" width="70" height="68"/>
		<rect x="439.999" y="561.809" width="70" height="68"/>
		<rect x="441" y="332.952" width="326" height="68"/>
	</g>
</g>
<g>
</g>
<g>
</g>
<g>
</g>
<g>
</g>
<g>
</g>
<g>
</g>
<g>
</g>
<g>
</g>
<g>
</g>
<g>
</g>
<g>
</g>
<g>
</g>
<g>
</g>
<g>
</g>
<g>
</g>
</svg>
