<?xml version="1.0" encoding="iso-8859-1"?>
<!-- Generator: Adobe Illustrator 16.0.0, SVG Export Plug-In . SVG Version: 6.00 Build 0)  -->
<!DOCTYPE svg PUBLIC "-//W3C//DTD SVG 1.1//EN" "http://www.w3.org/Graphics/SVG/1.1/DTD/svg11.dtd">
<svg version="1.1" id="Capa_1" xmlns="http://www.w3.org/2000/svg" xmlns:xlink="http://www.w3.org/1999/xlink" x="0px" y="0px"
	 width="974.268px" height="974.268px" viewBox="0 0 974.268 974.268" style="enable-background:new 0 0 974.268 974.268;"
	 xml:space="preserve">
<g>
	<g>
		<path d="M606.63,305.342c0-65.89-53.605-119.495-119.496-119.495c-23.089,0-45.507,6.605-64.831,19.104
			c-18.781,12.146-33.746,29.239-43.276,49.433l61.495,29.023c8.476-17.957,26.771-29.56,46.612-29.56
			c28.396,0,51.496,23.101,51.496,51.495c0,28.396-23.102,51.496-51.496,51.496h-34v61.583L0,788.421h974.268L522.446,419.492
			C571.148,404.394,606.63,358.942,606.63,305.342z M783.475,720.421H190.793l296.341-241.974L783.475,720.421z"/>
	</g>
</g>
<g>
</g>
<g>
</g>
<g>
</g>
<g>
</g>
<g>
</g>
<g>
</g>
<g>
</g>
<g>
</g>
<g>
</g>
<g>
</g>
<g>
</g>
<g>
</g>
<g>
</g>
<g>
</g>
<g>
</g>
</svg>
