<?xml version="1.0" encoding="iso-8859-1"?>
<!-- Generator: Adobe Illustrator 16.0.0, SVG Export Plug-In . SVG Version: 6.00 Build 0)  -->
<!DOCTYPE svg PUBLIC "-//W3C//DTD SVG 1.1//EN" "http://www.w3.org/Graphics/SVG/1.1/DTD/svg11.dtd">
<svg version="1.1" id="Capa_1" xmlns="http://www.w3.org/2000/svg" xmlns:xlink="http://www.w3.org/1999/xlink" x="0px" y="0px"
	 width="974px" height="974px" viewBox="0 0 974 974" style="enable-background:new 0 0 974 974;" xml:space="preserve">
<g>
	<g>
		<path d="M792,0H182v974h610V0z M250,68h474v52H250V68z M724,706.979H250V188h474V706.979z M724,906H250V774.979h474V906z"/>
		<circle cx="388.86" cy="619.141" r="32.14"/>
		<circle cx="554.77" cy="619.141" r="32.14"/>
		<path d="M603.335,558.376l42.997-194.725h38.749v-68h-93.372l-10.946,49.576l-279.96-0.2l35.431,213.35L603.335,558.376
			L603.335,558.376z M565.75,413.216l-17.038,77.16H393.871l-12.835-77.292L565.75,413.216z"/>
		<circle cx="487" cy="839.028" r="35.629"/>
	</g>
</g>
<g>
</g>
<g>
</g>
<g>
</g>
<g>
</g>
<g>
</g>
<g>
</g>
<g>
</g>
<g>
</g>
<g>
</g>
<g>
</g>
<g>
</g>
<g>
</g>
<g>
</g>
<g>
</g>
<g>
</g>
</svg>
