<?xml version="1.0" encoding="iso-8859-1"?>
<!-- Generator: Adobe Illustrator 16.0.0, SVG Export Plug-In . SVG Version: 6.00 Build 0)  -->
<!DOCTYPE svg PUBLIC "-//W3C//DTD SVG 1.1//EN" "http://www.w3.org/Graphics/SVG/1.1/DTD/svg11.dtd">
<svg version="1.1" id="Capa_1" xmlns="http://www.w3.org/2000/svg" xmlns:xlink="http://www.w3.org/1999/xlink" x="0px" y="0px"
	 width="994.743px" height="994.743px" viewBox="0 0 994.743 994.743" style="enable-background:new 0 0 994.743 994.743;"
	 xml:space="preserve">
<g>
	<g>
		<path d="M497.372,25.519L335.798,326.327L0,387.599l230.684,248.146l-39.867,333.479l306.555-125.839l306.554,125.84
			l-39.867-333.479L994.743,387.6l-335.798-61.271L497.372,25.519z M695.943,613.552l30.309,253.524l-228.88-93.955l-228.88,93.955
			l30.309-253.524L128.393,430.245l249.859-45.592l119.12-221.769l119.12,221.77l249.858,45.592L695.943,613.552z"/>
		<path d="M535.608,477.52h72.377v-65h-72.377v-18.944h-65v18.944h-89.292v186.044h89.292v56.044h-73.851v65h73.851v18.944h65
			v-18.944h86.704V533.563h-86.704V477.52z M557.312,598.563v56.044h-21.704v-56.044H557.312z M446.316,533.563V477.52h24.292
			v56.044H446.316z"/>
	</g>
</g>
<g>
</g>
<g>
</g>
<g>
</g>
<g>
</g>
<g>
</g>
<g>
</g>
<g>
</g>
<g>
</g>
<g>
</g>
<g>
</g>
<g>
</g>
<g>
</g>
<g>
</g>
<g>
</g>
<g>
</g>
</svg>
